<?xml version="1.0" standalone="no"?>
<!DOCTYPE svg PUBLIC "-//W3C//DTD SVG 20010904//EN"
 "http://www.w3.org/TR/2001/REC-SVG-20010904/DTD/svg10.dtd">
<svg version="1.0" xmlns="http://www.w3.org/2000/svg"
 width="800.000000pt" height="800.000000pt" viewBox="0 0 800.000000 800.000000"
 preserveAspectRatio="xMidYMid meet">

<g transform="translate(0.000000,800.000000) scale(0.100000,-0.100000)"
fill="#000000" stroke="none">
<path d="M3505 7991 c-95 -24 -172 -87 -217 -179 -32 -65 -33 -70 -36 -222
l-4 -155 -141 -37 c-78 -20 -150 -39 -159 -43 -13 -5 -31 19 -88 114 -82 140
-122 184 -199 219 -44 21 -72 26 -131 27 -66 0 -84 -4 -150 -37 -113 -54 -760
-432 -802 -467 -43 -36 -94 -136 -103 -202 -11 -78 10 -147 86 -279 38 -66 69
-124 69 -128 0 -4 -52 -59 -115 -122 -97 -97 -118 -113 -133 -104 -119 74
-247 136 -298 146 -107 19 -240 -29 -305 -112 -55 -71 -469 -800 -485 -857
-28 -96 -3 -205 65 -292 18 -22 79 -66 161 -115 103 -61 130 -81 125 -94 -4
-10 -23 -81 -43 -159 l-37 -141 -155 -4 c-142 -3 -160 -6 -211 -30 -76 -35
-129 -85 -165 -155 l-29 -58 0 -505 0 -505 23 -46 c37 -75 87 -125 160 -161
65 -32 70 -33 222 -36 l155 -4 37 -141 c20 -78 39 -149 43 -159 5 -13 -22 -33
-125 -94 -82 -49 -143 -93 -161 -115 -70 -89 -94 -203 -62 -301 27 -84 448
-812 501 -866 48 -49 124 -87 193 -97 77 -11 145 10 279 85 68 39 126 70 129
70 9 0 231 -224 231 -232 0 -4 -31 -62 -69 -128 -76 -132 -97 -201 -86 -279 9
-66 60 -166 103 -202 43 -36 691 -413 802 -467 66 -32 84 -37 150 -36 59 0 87
5 131 26 77 35 117 79 199 219 57 95 75 119 88 114 9 -4 81 -23 159 -43 l141
-37 4 -155 c3 -152 4 -157 36 -222 36 -73 86 -123 161 -160 l46 -23 505 0 505
0 57 28 c68 33 121 90 156 166 24 51 27 69 30 211 l4 155 141 37 c78 20 150
39 159 43 13 5 31 -19 87 -114 81 -136 120 -179 200 -218 46 -23 69 -28 131
-28 66 0 84 5 150 37 111 53 759 431 802 467 43 36 94 136 103 202 11 78 -10
147 -86 279 -38 66 -69 124 -69 128 0 9 223 232 232 232 4 0 62 -31 128 -69
132 -76 201 -97 279 -86 66 9 166 60 202 103 36 43 413 691 467 802 32 66 37
84 36 150 0 55 -6 88 -22 123 -38 85 -73 118 -212 201 -103 61 -130 81 -125
94 4 10 23 81 43 159 l37 141 155 4 c152 3 157 4 222 36 73 36 123 86 160 161
l23 46 0 505 c0 556 3 525 -64 617 -72 99 -166 133 -366 133 l-130 0 -37 143
c-20 78 -39 150 -43 159 -5 13 19 31 114 88 140 82 184 122 219 199 21 44 26
72 26 131 1 66 -4 84 -36 150 -54 111 -431 759 -467 802 -36 43 -136 94 -202
103 -78 11 -147 -10 -279 -86 -66 -38 -124 -69 -128 -69 -9 0 -232 223 -232
232 0 4 31 62 69 128 76 132 97 201 86 279 -9 66 -60 166 -103 202 -43 36
-692 414 -802 468 -66 32 -84 36 -150 36 -62 0 -86 -6 -131 -28 -80 -39 -119
-82 -200 -218 -56 -95 -74 -119 -87 -114 -9 4 -81 23 -159 43 l-141 37 -4 155
c-3 142 -6 160 -30 211 -35 76 -88 133 -156 166 l-57 28 -485 2 c-267 1 -498
-2 -515 -6z m357 -1731 c72 -148 134 -270 138 -270 4 0 66 122 139 271 l132
272 67 -7 c86 -9 275 -49 382 -81 88 -26 267 -91 287 -103 8 -5 6 -82 -9 -315
-11 -170 -17 -311 -15 -314 3 -2 121 73 263 168 242 161 259 171 280 158 53
-32 258 -216 331 -297 110 -121 193 -224 193 -239 0 -7 -74 -123 -165 -259
-91 -135 -164 -248 -162 -250 2 -2 136 5 298 16 162 11 297 20 302 20 17 0
106 -241 146 -396 22 -89 61 -296 61 -329 0 -18 -36 -39 -222 -130 -123 -60
-224 -109 -226 -110 -1 -1 1 -30 5 -65 l6 -63 219 -105 c202 -98 218 -107 218
-132 0 -36 -37 -239 -60 -330 -38 -150 -130 -400 -147 -400 -4 0 -141 9 -303
20 -162 10 -296 18 -298 16 -1 -2 72 -115 163 -250 91 -136 165 -252 165 -259
0 -15 -80 -115 -189 -236 -67 -74 -252 -241 -322 -292 l-26 -18 -263 176 -263
175 7 -142 c4 -78 9 -149 11 -158 1 -10 6 -80 9 -157 4 -77 10 -148 12 -157 6
-21 -48 -47 -209 -102 -131 -44 -231 -69 -376 -95 -186 -34 -151 -63 -303 249
-72 148 -134 270 -138 270 -4 0 -66 -121 -138 -270 -152 -312 -117 -283 -303
-250 -181 33 -333 76 -502 143 l-79 30 6 56 c12 115 38 562 33 567 -3 3 -120
-71 -261 -165 -141 -94 -260 -171 -264 -171 -15 0 -204 161 -293 250 -98 97
-249 277 -249 297 0 7 74 123 165 259 91 136 164 248 162 250 -2 2 -138 -5
-303 -16 -274 -19 -300 -19 -311 -4 -15 20 -76 186 -108 294 -30 101 -71 292
-80 375 l-7 61 281 137 c155 76 280 141 277 146 -3 4 -129 68 -282 142 l-276
134 6 65 c9 84 49 274 81 380 32 108 93 274 108 294 11 15 32 15 242 2 127 -9
261 -18 299 -21 63 -6 68 -5 64 12 -3 10 -75 123 -161 250 -87 127 -157 238
-157 246 0 20 149 198 249 297 47 47 131 123 185 168 99 82 100 82 125 65 14
-9 131 -86 259 -171 127 -86 235 -152 239 -149 6 7 -24 551 -33 595 -4 19 3
26 43 43 178 78 540 174 676 178 l37 1 132 -270z"/>
<path d="M3798 5403 l-196 -198 -101 -202 -101 -203 1 -802 0 -803 97 -192 97
-193 202 -203 203 -203 202 203 203 204 97 192 97 192 0 803 1 802 -101 203
-101 202 -196 198 c-108 108 -199 197 -202 197 -3 0 -94 -89 -202 -197z"/>
</g>
</svg>
